# xmcd
#
# Track frame offsets:
#	150
#	13367
#	30552
#	50577
#	65597
#	90147
#	106005
#	120497
#	140215
#	159777
#	175857
#	193035
#	209882
#
# Disc length: 3027 seconds
#
# Revision: 1
# Processed by: cddbd v1.4PL0 Copyright (c) Steve Scherf et al.
# Submitted via: audiograbber 1.82.02
#
DISCID=b10bd10d
DTITLE=Heidi Howe - A Real Piece Of Work
DYEAR=2001
DGENRE=Country
TTITLE0=Better Advertised
TTITLE1=Fire In Her Heart
TTITLE2=Another Other Woman
TTITLE3=Wherever I Go, There You Are
TTITLE4=King Of The Vinyl
TTITLE5=Ex's Baggage
TTITLE6=Cruisin For A Bruisin
TTITLE7=For Your Body
TTITLE8=Haven't Met You Yet
TTITLE9=If I Were A Man
TTITLE10=Can't Put Our Future Behind Me
TTITLE11=Thorn In My Side
TTITLE12=Buy, Buy
EXTD=
EXTT0=
EXTT1=
EXTT2=
EXTT3=
EXTT4=
EXTT5=
EXTT6=
EXTT7=
EXTT8=
EXTT9=
EXTT10=
EXTT11=
EXTT12=
PLAYORDER=
